<mxfile host="app.diagrams.net" modified="2024-08-03T08:32:27.066Z" agent="Mozilla/5.0 (Macintosh; Intel Mac OS X 10_15_7) AppleWebKit/537.36 (KHTML, like Gecko) Chrome/126.0.0.0 Safari/537.36" version="24.5.5" etag="5bnK3wm_r2ki0kw2hWj-" type="github">
  <diagram name="第 1 页" id="2l_MfVjU0e6skEioDtGh">
    <mxGraphModel>
      <root>
        <mxCell id="0" />
        <mxCell id="1" parent="0" />
      </root>
    </mxGraphModel>
  </diagram>
</mxfile>
